<svg xmlns="http://www.w3.org/2000/svg" viewBox="0 0 32.86 64" role="img" aria-labelledby="title">
  <title>BESVECA B</title>
  <path fill="#000000" d="M21.69 32c2.42-.82 4.59-2.18 6.36-3.95 2.97-2.97 4.81-7.09 4.81-11.62s-1.84-8.65-4.81-11.62A16.38 16.38 0 0 0 16.43 0h-.86v9.09A16.5 16.5 0 0 0 9.08 2.2C6.67.8 3.86 0 .86 0H0v64h16.43c4.53 0 8.65-1.84 11.62-4.81s4.81-7.09 4.81-11.62-1.84-8.65-4.81-11.62A16.5 16.5 0 0 0 21.69 32M17.3 1.76c3.72.22 7.06 1.81 9.53 4.28 2.66 2.66 4.3 6.33 4.31 10.4 0 4.06-1.64 7.73-4.31 10.4a14.66 14.66 0 0 1-9.53 4.28zm-15.57 0c2.35.14 4.56.83 6.49 1.94 2.2 1.27 4.04 3.09 5.33 5.28s2.03 4.73 2.03 7.45v14.7H1.73zm0 60.51V32.86h13.84v29.41zm25.1-4.31a14.66 14.66 0 0 1-9.53 4.28V32.89c3.72.22 7.06 1.81 9.53 4.28 2.66 2.66 4.3 6.33 4.31 10.4 0 4.06-1.64 7.73-4.31 10.4Z"/>
</svg>
